<svg width="671" height="670" xmlns="http://www.w3.org/2000/svg" xmlns:xlink="http://www.w3.org/1999/xlink" xml:space="preserve" overflow="hidden"><g transform="translate(-378 -15)"><path d="M391.531 76.7708C391.531 107.607 366.534 132.604 335.698 132.604 304.862 132.604 279.865 107.607 279.865 76.7708 279.865 45.9349 304.862 20.9375 335.698 20.9375 366.534 20.9375 391.531 45.9349 391.531 76.7708Z" fill="#063951" transform="matrix(1.00149 0 0 1 378 15)"/><path d="M487.844 361.521 437.594 188.438C436.198 181.458 432.01 175.875 426.427 173.083 409.677 161.917 390.135 154.938 367.802 149.354 356.635 147.958 346.865 146.562 335.698 146.562 324.531 146.562 314.76 147.958 303.594 149.354 281.26 153.542 261.719 161.917 244.969 173.083 239.385 177.271 235.198 181.458 233.802 188.438L182.156 361.521C177.969 376.875 186.344 392.229 201.698 396.417 204.49 397.812 207.281 397.812 210.073 397.812 222.635 397.812 233.802 389.438 236.594 378.271L279.865 231.708 279.865 280.562 228.219 453.646 265.906 453.646 265.906 649.062 321.74 649.062 321.74 453.646 349.656 453.646 349.656 649.062 405.49 649.062 405.49 453.646 443.177 453.646 391.531 280.562 391.531 231.708 434.802 378.271C438.99 390.833 450.156 397.812 461.323 397.812 464.115 397.812 466.906 397.812 469.698 396.417 483.656 392.229 492.031 376.875 487.844 361.521Z" fill="#063951" transform="matrix(1.00149 0 0 1 378 15)"/></g></svg>