<svg width="671" height="671" xmlns="http://www.w3.org/2000/svg" xmlns:xlink="http://www.w3.org/1999/xlink" xml:space="preserve" overflow="hidden"><g transform="translate(-10 -17)"><path d="M401.417 93.8854C401.417 124.767 376.382 149.802 345.5 149.802 314.618 149.802 289.583 124.767 289.583 93.8854 289.583 63.0035 314.618 37.9688 345.5 37.9688 376.382 37.9688 401.417 63.0035 401.417 93.8854Z" fill="#063951"/><path d="M497.873 381.856 458.731 215.504C457.333 209.913 454.538 204.321 450.344 200.127 433.569 186.148 413.998 176.363 391.631 169.373 376.254 166.577 360.877 163.781 345.5 163.781 330.123 163.781 314.746 166.577 299.369 170.771 277.002 176.363 257.431 187.546 240.656 201.525 236.463 205.719 233.667 211.31 232.269 216.902L193.127 383.254C193.127 384.652 191.729 387.448 191.729 390.244 191.729 405.621 204.31 418.202 219.688 418.202 232.269 418.202 243.452 408.417 246.248 397.233L275.604 275.615 275.604 667.031 331.521 667.031 331.521 415.406 359.479 415.406 359.479 667.031 415.396 667.031 415.396 274.217 444.752 395.835C447.548 407.019 458.731 416.804 471.312 416.804 486.69 416.804 499.271 404.223 499.271 388.846 499.271 386.05 497.873 383.254 497.873 381.856Z" fill="#063951"/></g></svg>